# xmcd
#
# Track frame offsets: 
#        150
#        21747
#        37928
#        54541
#        75812
#        95363
#        114429
#        137647
#        164550
#        185445
#        204511
#
# Disc length: 2957 seconds
#
# Revision: 2
# Processed by: cddbd v1.5.2PL0 Copyright (c) Steve Scherf et al.
# Submitted via: ExactAudioCopyFreeDBPlugin 1.0
#
DISCID=8a0b8b0b
DTITLE=群星 - DTS51声色仙境4
DYEAR=2008
DGENRE=DTS
TTITLE0=神奇的九寨
TTITLE1=宁夏
TTITLE2=跟着感觉走
TTITLE3=月朦胧鸟朦胧
TTITLE4=山不转水转
TTITLE5=童话
TTITLE6=听海
TTITLE7=发如雪
TTITLE8=约定
TTITLE9=月亮走我也走
TTITLE10=忘情水
EXTD=
EXTT0=
EXTT1=
EXTT2=
EXTT3=
EXTT4=
EXTT5=
EXTT6=
EXTT7=
EXTT8=
EXTT9=
EXTT10=
PLAYORDER=
